<svg version="1.1" xmlns="http://www.w3.org/2000/svg" xmlns:xlink="http://www.w3.org/1999/xlink" x="0px"
     y="0px" viewBox="0 0 100 100" style="enable-background:new 0 0 100 100;" xml:space="preserve">
		<path d="M48.1,14.6c-0.4-0.6-0.9-1-1.5-1.4c-0.6-0.4-1.5-0.5-2.4-0.5c-0.4,0-0.8,0-1.2,0c-0.4,0-0.7,0-0.9,0.1V25
		c0.1,0,0.2,0,0.4,0c0.2,0,0.3,0,0.5,0c0.2,0,0.4,0,0.5,0c0.2,0,0.3,0,0.4,0c1,0,1.8-0.2,2.5-0.5c0.7-0.4,1.2-0.8,1.6-1.4
		c0.4-0.6,0.7-1.3,0.8-2c0.2-0.8,0.2-1.6,0.2-2.4c0-0.7-0.1-1.4-0.2-2.1C48.8,15.9,48.5,15.2,48.1,14.6z"/>
    <path d="M16.9,17.4c0.6-0.4,0.9-1.2,0.9-2.2c0-0.8-0.2-1.4-0.7-1.8c-0.5-0.4-1.2-0.7-2.1-0.7c-0.4,0-0.7,0-1.1,0
		c-0.4,0-0.6,0.1-0.8,0.1v5.3h1.5C15.5,18.1,16.3,17.9,16.9,17.4z"/>
    <path d="M0,0v100h100V0H0z M25.1,9.8h10.8V13h-7.2v4.2h6.6v3.2h-6.6v4.4H36v3.2H25.1V9.8z M9.5,10
		c0.4-0.1,0.8-0.1,1.3-0.2c0.5-0.1,0.9-0.1,1.4-0.1c0.5,0,0.9-0.1,1.3-0.1c0.4,0,0.8,0,1.2,0c0.8,0,1.7,0.1,2.5,0.2
		c0.8,0.2,1.6,0.4,2.2,0.8c0.6,0.4,1.2,0.9,1.6,1.6c0.4,0.7,0.6,1.5,0.6,2.5c0,1.5-0.3,2.7-1,3.6c-0.7,0.9-1.6,1.6-2.8,1.9L19,21
		l4.1,6.9H19l-4.1-7.1L13,20.5v7.4H9.5V10z M20.4,47.4c-0.3,0.7-0.8,1.3-1.3,1.7c-0.6,0.5-1.3,0.8-2.1,1c-0.8,0.2-1.7,0.3-2.7,0.3
		c-1.3,0-2.4-0.1-3.4-0.4s-1.7-0.5-2.2-0.7l1.1-3c0.2,0.1,0.4,0.2,0.7,0.3c0.3,0.1,0.6,0.2,1,0.3c0.4,0.1,0.8,0.2,1.2,0.3
		c0.4,0.1,0.9,0.1,1.3,0.1c1.1,0,1.9-0.2,2.4-0.5c0.6-0.4,0.8-0.9,0.8-1.6c0-0.6-0.2-1-0.6-1.3c-0.4-0.3-0.9-0.7-1.5-0.9
		c-0.6-0.3-1.3-0.6-2-0.9c-0.7-0.3-1.4-0.7-2-1.1c-0.6-0.4-1.1-1-1.5-1.6C9.2,38.7,9,37.9,9,36.8c0-0.9,0.1-1.6,0.4-2.3
		c0.3-0.6,0.7-1.2,1.3-1.6c0.5-0.4,1.2-0.8,1.9-1c0.7-0.2,1.6-0.3,2.5-0.3c1.1,0,2,0.1,3,0.3s1.7,0.4,2.3,0.8l-1.1,3
		c-0.4-0.2-1-0.5-1.7-0.7c-0.8-0.2-1.6-0.3-2.5-0.3c-0.8,0-1.5,0.2-1.9,0.5c-0.4,0.3-0.7,0.8-0.7,1.3c0,0.5,0.2,1,0.6,1.3
		c0.4,0.3,0.9,0.7,1.5,1c0.6,0.3,1.3,0.6,2,0.9c0.7,0.3,1.4,0.7,2,1.1c0.6,0.4,1.1,1,1.5,1.6c0.4,0.6,0.6,1.5,0.6,2.4
		C20.9,45.9,20.7,46.7,20.4,47.4z M36,48.1c-1.3,1.6-3.2,2.4-5.7,2.4c-1.3,0-2.5-0.2-3.4-0.7c-1-0.4-1.8-1.1-2.4-1.9
		c-0.6-0.8-1.1-1.8-1.4-3c-0.3-1.2-0.5-2.4-0.5-3.9c0-3,0.7-5.4,2-7c1.3-1.6,3.2-2.4,5.7-2.4c1.3,0,2.4,0.2,3.4,0.7
		c1,0.4,1.8,1.1,2.4,1.9c0.6,0.8,1.1,1.8,1.4,3c0.3,1.2,0.5,2.4,0.5,3.9C38,44.1,37.4,46.4,36,48.1z M51.3,35.2h-7.2v4.5h6.6v3.2
		h-6.6v7.3h-3.6V32h10.8V35.2z M50.8,25.3c-0.7,0.9-1.7,1.6-2.9,2.1c-1.2,0.5-2.6,0.8-4.4,0.8c-0.3,0-0.6,0-1.1,0
		c-0.5,0-0.9,0-1.4-0.1c-0.5,0-1-0.1-1.4-0.1c-0.4,0-0.8-0.1-1-0.1V9.8c0.4-0.1,0.8-0.1,1.2-0.1c0.5,0,0.9-0.1,1.4-0.1
		c0.5,0,1,0,1.4,0c0.5,0,0.9,0,1.2,0c1.6,0,3,0.2,4.1,0.7c1.1,0.4,2.1,1.1,2.8,1.9c0.7,0.8,1.2,1.8,1.6,2.9c0.3,1.1,0.5,2.4,0.5,3.7
		c0,1.2-0.2,2.4-0.5,3.6C52.1,23.4,51.5,24.4,50.8,25.3z M66.6,35.2h-5.3v15h-3.6v-15h-5.3V32h14.2V35.2z"/>
    <path d="M33.4,36.6c-0.3-0.6-0.7-1-1.2-1.3c-0.5-0.3-1.1-0.5-1.8-0.5c-1.3,0-2.2,0.5-2.9,1.5c-0.7,1-1,2.6-1,4.8
		c0,0.9,0.1,1.8,0.2,2.5c0.2,0.8,0.4,1.4,0.7,2c0.3,0.6,0.7,1,1.2,1.3s1.1,0.5,1.8,0.5c1.3,0,2.2-0.5,2.9-1.5c0.7-1,1-2.6,1-4.8
		c0-0.9-0.1-1.7-0.2-2.5C33.9,37.9,33.7,37.2,33.4,36.6z"/>
</svg>
