<svg xmlns="http://www.w3.org/2000/svg" xmlns:xlink="http://www.w3.org/1999/xlink"><defs><symbol id="logo" viewBox="0 0 100 100"><path d="M48.1 14.6c-.4-.6-.9-1-1.5-1.4-.6-.4-1.5-.5-2.4-.5H43c-.4 0-.7 0-.9.1V25h1.8c1 0 1.8-.2 2.5-.5.7-.4 1.2-.8 1.6-1.4.4-.6.7-1.3.8-2 .2-.8.2-1.6.2-2.4 0-.7-.1-1.4-.2-2.1 0-.7-.3-1.4-.7-2zm-31.2 2.8c.6-.4.9-1.2.9-2.2 0-.8-.2-1.4-.7-1.8-.5-.4-1.2-.7-2.1-.7h-1.1c-.4 0-.6.1-.8.1v5.3h1.5c.9 0 1.7-.2 2.3-.7z"/><path d="M0 0v100h100V0H0zm25.1 9.8h10.8V13h-7.2v4.2h6.6v3.2h-6.6v4.4H36V28H25.1V9.8zM9.5 10c.4-.1.8-.1 1.3-.2s.9-.1 1.4-.1c.5 0 .9-.1 1.3-.1h1.2c.8 0 1.7.1 2.5.2.8.2 1.6.4 2.2.8.6.4 1.2.9 1.6 1.6.4.7.6 1.5.6 2.5 0 1.5-.3 2.7-1 3.6-.7.9-1.6 1.6-2.8 1.9l1.2.8 4.1 6.9H19l-4.1-7.1-1.9-.3v7.4H9.5V10zm10.9 37.4c-.3.7-.8 1.3-1.3 1.7-.6.5-1.3.8-2.1 1-.8.2-1.7.3-2.7.3-1.3 0-2.4-.1-3.4-.4s-1.7-.5-2.2-.7l1.1-3c.2.1.4.2.7.3.3.1.6.2 1 .3l1.2.3c.4.1.9.1 1.3.1 1.1 0 1.9-.2 2.4-.5.6-.4.8-.9.8-1.6 0-.6-.2-1-.6-1.3-.4-.3-.9-.7-1.5-.9-.6-.3-1.3-.6-2-.9-.7-.3-1.4-.7-2-1.1-.6-.4-1.1-1-1.5-1.6-.4-.7-.6-1.5-.6-2.6 0-.9.1-1.6.4-2.3.3-.6.7-1.2 1.3-1.6.5-.4 1.2-.8 1.9-1 .7-.2 1.6-.3 2.5-.3 1.1 0 2 .1 3 .3s1.7.4 2.3.8l-1.1 3c-.4-.2-1-.5-1.7-.7-.8-.2-1.6-.3-2.5-.3-.8 0-1.5.2-1.9.5-.4.3-.7.8-.7 1.3s.2 1 .6 1.3c.4.3.9.7 1.5 1 .6.3 1.3.6 2 .9.7.3 1.4.7 2 1.1.6.4 1.1 1 1.5 1.6.4.6.6 1.5.6 2.4.2 1.1 0 1.9-.3 2.6zm15.6.7c-1.3 1.6-3.2 2.4-5.7 2.4-1.3 0-2.5-.2-3.4-.7-1-.4-1.8-1.1-2.4-1.9-.6-.8-1.1-1.8-1.4-3-.3-1.2-.5-2.4-.5-3.9 0-3 .7-5.4 2-7 1.3-1.6 3.2-2.4 5.7-2.4 1.3 0 2.4.2 3.4.7 1 .4 1.8 1.1 2.4 1.9.6.8 1.1 1.8 1.4 3 .3 1.2.5 2.4.5 3.9 0 3-.6 5.3-2 7zm15.3-12.9h-7.2v4.5h6.6v3.2h-6.6v7.3h-3.6V32h10.8v3.2zm-.5-9.9c-.7.9-1.7 1.6-2.9 2.1s-2.6.8-4.4.8h-1.1c-.5 0-.9 0-1.4-.1-.5 0-1-.1-1.4-.1-.4 0-.8-.1-1-.1V9.8c.4-.1.8-.1 1.2-.1.5 0 .9-.1 1.4-.1h2.6c1.6 0 3 .2 4.1.7 1.1.4 2.1 1.1 2.8 1.9.7.8 1.2 1.8 1.6 2.9.3 1.1.5 2.4.5 3.7 0 1.2-.2 2.4-.5 3.6-.2 1-.8 2-1.5 2.9zm15.8 9.9h-5.3v15h-3.6v-15h-5.3V32h14.2v3.2z"/><path d="M33.4 36.6c-.3-.6-.7-1-1.2-1.3-.5-.3-1.1-.5-1.8-.5-1.3 0-2.2.5-2.9 1.5-.7 1-1 2.6-1 4.8 0 .9.1 1.8.2 2.5.2.8.4 1.4.7 2 .3.6.7 1 1.2 1.3s1.1.5 1.8.5c1.3 0 2.2-.5 2.9-1.5.7-1 1-2.6 1-4.8 0-.9-.1-1.7-.2-2.5-.2-.7-.4-1.4-.7-2z"/></symbol><symbol id="null" viewBox="0 0 58 58"><path d="M57 6H1a1 1 0 0 0-1 1v44a1 1 0 0 0 1 1h56a1 1 0 0 0 1-1V7a1 1 0 0 0-1-1zm-1 44H2V8h54v42z"/><path d="M16 28.138a5.575 5.575 0 0 0 5.569-5.568c0-3.072-2.498-5.57-5.569-5.57s-5.569 2.498-5.569 5.569A5.575 5.575 0 0 0 16 28.138zM16 19c1.968 0 3.569 1.602 3.569 3.569S17.968 26.138 16 26.138s-3.569-1.601-3.569-3.568S14.032 19 16 19zM7 46c.234 0 .47-.082.66-.249l16.313-14.362L34.275 41.69a.999.999 0 1 0 1.414-1.414l-4.807-4.807 9.181-10.054 11.261 10.323a1 1 0 0 0 1.351-1.475l-12-11a1.031 1.031 0 0 0-.72-.262 1.002 1.002 0 0 0-.694.325l-9.794 10.727-4.743-4.743a1 1 0 0 0-1.368-.044L6.339 44.249A1 1 0 0 0 7 46z"/></symbol></defs><view id="view-logo" viewBox="0 0 50 50"></view><view id="view-null" viewBox="60 0 50 50"></view><use id="logo" xlink:href="#logo" width="50" height="50" x="0" y="0"></use><use id="null" xlink:href="#null" width="50" height="50" x="60" y="0"></use></svg>